<svg width="180" height="47" viewBox="0 0 180 47" fill="none" xmlns="http://www.w3.org/2000/svg">
<path d="M39.841 46.7699H6.92887C3.08786 46.7699 0 43.682 0 39.841V6.92888C0 3.08788 3.08786 0 6.92887 0H39.841C43.682 0 46.7699 3.08788 46.7699 6.92888V39.841C46.7699 43.682 43.6067 46.7699 39.841 46.7699Z" fill="white"/>
<path d="M23.0462 15.1381C23.0462 15.1381 27.6403 12.3514 30.4269 10.7699C33.2135 9.18827 34.7951 8.66107 36.3767 8.51044C37.9583 8.43513 39.7659 9.26358 39.7659 9.26358L34.7198 6.1004C34.7198 6.1004 34.042 5.64852 32.1592 5.87446C30.2763 6.1004 29.2972 6.6276 28.0922 7.23011C26.8872 7.90793 18.8286 12.6527 18.8286 12.6527L23.0462 15.1381Z" fill="#231815"/>
<path d="M35.0966 13.0292C35.0966 13.0292 37.4314 16.2677 35.6238 21.9916C33.8163 27.7154 29.5987 30.9539 29.2975 31.1798C29.0715 31.4058 26.4355 32.9121 26.4355 32.9121L26.5109 37.4309C26.5109 37.4309 34.946 34.4937 38.4858 26.3598C41.6489 19.2049 39.6155 15.364 38.0339 13.707C37.1301 12.728 35.0966 13.0292 35.0966 13.0292Z" fill="#231815"/>
<path d="M23.0462 37.3557L18.8286 34.8703V12.7281L23.0462 15.1381V37.3557Z" fill="#231815"/>
<path d="M10.1675 30.8786L5.94995 28.318V6.25102L10.0922 8.58575L10.1675 30.8786Z" fill="#231815"/>
<path d="M5.95007 28.318C5.95007 28.318 4.89568 37.6569 12.5024 41.046C16.8706 43.0042 20.1091 41.8745 21.6153 40.3682C22.8204 39.1632 22.971 37.3557 22.971 37.3557L18.7534 34.795C18.7534 34.795 18.7534 35.6988 18.0756 36.3766C17.3224 37.205 16.1174 38.0335 13.4061 36.6778C9.9417 34.8703 10.0923 30.8787 10.0923 30.8787L5.95007 28.318Z" fill="#231815"/>
<path d="M10.0924 8.58574L13.4816 6.85352L9.64057 4.74473L5.9502 6.251L10.0924 8.58574Z" fill="#231815"/>
<path d="M175.783 36.0752H177.44V36.4517H176.762V38.184H176.385V36.4517H175.708L175.783 36.0752Z" fill="white"/>
<path d="M177.741 36.0752H178.193L178.871 37.4309L179.548 36.0752H180V38.184H179.624V36.6777L178.946 37.958H178.72L178.042 36.6777V38.184H177.741V36.0752Z" fill="white"/>
<path d="M173.523 36.2258C173.523 36.9789 173.523 37.5814 173.523 38.3345C170.435 38.3345 167.348 38.3345 164.335 38.3345C162.076 38.3345 162.076 38.3346 162.076 40.5187C162.076 43.7571 162.076 43.7571 165.239 43.7571C166.896 43.7571 168.553 43.6818 170.134 43.7571C171.339 43.8325 171.716 43.3806 171.565 42.2509C171.49 41.573 171.565 40.8199 171.565 39.9914C172.318 39.9914 172.996 39.9914 173.9 39.9914C173.9 41.2718 173.975 42.4768 173.9 43.7571C173.825 45.0375 172.996 45.7906 171.791 45.8659C168.477 45.9412 165.239 45.9412 161.925 45.8659C160.419 45.8659 159.666 44.8868 159.666 43.3806C159.666 41.8743 159.666 40.2927 159.666 38.7864C159.666 37.1295 160.419 36.3011 162 36.2258C165.841 36.1504 169.607 36.2258 173.523 36.2258Z" fill="white"/>
<path d="M56.7869 20.2593H59.1216V27.4894C59.1216 27.64 59.2722 27.7906 59.4229 27.7906H68.5358C68.6865 27.7906 68.8371 27.64 68.8371 27.4894V20.2593H71.2472C71.2472 22.8952 71.3225 25.4559 71.2472 28.0166C71.2472 29.2216 70.4187 29.9747 69.289 29.9747C65.6739 30.05 62.4354 30.05 58.7451 29.9747C57.54 29.9747 56.7869 29.1463 56.7869 27.8659C56.7116 25.3806 56.7869 22.8199 56.7869 20.2593Z" fill="white"/>
<path d="M109.356 36.2257H111.691V43.3052C111.691 43.4559 111.841 43.6065 111.992 43.6065H122.536V45.7906C122.536 45.7906 112.143 45.7906 112.067 45.7906C109.959 45.7906 109.281 44.9622 109.281 43.0793C109.356 41.0458 109.356 38.4852 109.356 36.2257Z" fill="white"/>
<path d="M139.707 36.3011C140.46 36.3011 141.063 36.3011 141.891 36.3011C141.891 39.4643 141.891 42.6275 141.891 45.866C141.214 45.866 140.536 45.866 139.707 45.866C139.707 42.6275 139.707 39.5396 139.707 36.3011Z" fill="white"/>
<path d="M104.31 24.9287C104.31 24.9287 104.686 24.3262 104.686 24.025C105.138 22.2174 104.461 20.3346 102.653 20.2593C98.586 20.1086 94.5191 20.1839 90.3015 20.1839C90.3015 23.4224 90.3015 26.5856 90.3015 29.8994C94.1425 29.8994 97.9082 29.8994 101.674 29.8994C104.611 29.8994 105.063 27.7153 104.611 25.6819C104.611 25.4559 104.31 24.9287 104.31 24.9287ZM101.825 27.7153L92.8622 27.7906V25.9831C92.8622 25.9831 100.168 25.9831 101.825 25.9831C101.975 25.9831 102.126 26.1337 102.126 26.2844V27.4141C102.126 27.5647 101.975 27.7153 101.825 27.7153ZM101.825 24.1756L92.8622 24.2509V22.4434C92.8622 22.4434 100.168 22.4434 101.825 22.4434C101.975 22.4434 102.126 22.594 102.126 22.7446V23.8743C102.126 24.025 101.975 24.1756 101.825 24.1756Z" fill="white"/>
<path d="M117.415 22.0668C116.661 20.5605 115.532 20.2593 114.025 20.2593C112.444 20.2593 111.389 20.5605 110.636 22.0668C110.636 22.0668 107.774 27.1881 106.117 29.9747H109.055L113.122 22.594C113.197 22.5187 113.272 22.4434 113.423 22.4434H114.779C114.854 22.4434 115.004 22.5187 115.08 22.594L119.147 29.9747C119.147 29.9747 121.331 29.9747 122.084 29.9747C120.276 27.1881 117.339 22.0668 117.415 22.0668Z" fill="white"/>
<path d="M137.448 20.2592H134.963C134.963 22.6692 134.963 25.0793 134.963 27.7906C134.963 27.7906 134.586 27.8659 134.059 27.414C132.779 26.209 129.917 22.7445 129.54 22.368C129.54 22.368 129.54 22.2927 129.465 22.2927C129.239 21.9914 129.013 21.7655 128.938 21.6901C128.034 20.7864 127.507 20.3345 125.85 20.1839H123.666C123.666 23.1211 123.666 26.9621 123.666 29.8994H126.151C126.151 27.4893 126.151 25.0793 126.151 22.368C126.151 22.368 126.528 22.2927 127.055 22.7445C128.335 23.9496 131.197 27.414 131.574 27.7906C131.574 27.7906 131.574 27.8659 131.649 27.8659C131.875 28.1671 132.101 28.3931 132.176 28.4684C133.08 29.3722 133.607 29.824 135.264 29.9747H137.448C137.448 27.0374 137.448 23.1964 137.448 20.2592Z" fill="white"/>
<path d="M71.1719 38.1087C71.1719 36.979 70.3435 36.3011 69.0631 36.3011C67.7075 36.3011 66.2765 36.3011 64.9209 36.3011C62.1342 36.3011 59.3476 36.3011 56.561 36.3011C56.561 39.5396 56.561 42.6275 56.561 45.866C59.2723 45.866 61.833 45.866 64.3937 45.866C65.9753 45.866 67.5568 45.866 69.0631 45.866C70.2681 45.866 71.0966 45.1128 71.1719 44.0584C71.1719 43.6066 71.1719 38.5605 71.1719 38.1087ZM68.8372 39.389V42.7781V43.4559C68.8372 43.6066 68.6866 43.7572 68.5359 43.7572H59.197C59.0464 43.7572 58.8958 43.6066 58.8958 43.4559V38.7865C58.8958 38.6359 59.0464 38.4852 59.197 38.4852H68.6866C68.8372 38.4852 68.8372 38.6359 68.8372 38.7865V39.389Z" fill="white"/>
<path d="M157.707 36.2259H155.222C155.222 38.6359 155.222 41.0459 155.222 43.7572C155.222 43.7572 154.846 43.8326 154.318 43.3807C153.038 42.1757 150.176 38.7112 149.8 38.3346C149.8 38.3346 149.8 38.3347 149.724 38.2593C149.498 37.9581 149.272 37.7321 149.197 37.6568C148.293 36.7531 147.766 36.3012 146.109 36.1505H143.925C143.925 39.0878 143.925 42.9288 143.925 45.866H146.41C146.41 43.456 146.41 41.0459 146.41 38.3346C146.41 38.3346 146.787 38.2593 147.314 38.7112C148.595 39.9162 151.456 43.3807 151.833 43.7572C151.833 43.7572 151.833 43.7572 151.908 43.8326C152.134 44.1338 152.36 44.3597 152.436 44.4351C153.339 45.3388 153.866 45.7907 155.523 45.9413H157.707C157.707 43.0041 157.707 39.1631 157.707 36.2259Z" fill="white"/>
<path d="M89.6239 36.2257C89.2474 38.2592 88.6449 40.8952 88.193 42.9287C88.1177 43.3806 87.967 43.6818 87.5905 43.6818C87.1386 43.6818 87.1386 43.3806 86.9126 42.9287C86.9126 42.9287 85.4064 38.937 84.6532 37.2048C84.352 36.527 83.9001 36.2257 83.2223 36.2257C82.921 36.2257 82.6198 36.2257 82.3938 36.2257H82.3185H82.2432C82.0172 36.2257 81.716 36.2257 81.4147 36.2257C80.7369 36.2257 80.285 36.527 79.9838 37.2048C79.2306 38.937 77.7244 42.9287 77.7244 42.9287C77.5737 43.3806 77.4984 43.6818 77.0465 43.6818C76.67 43.6818 76.5193 43.3806 76.444 42.9287C75.9921 40.8199 75.465 38.2592 75.0131 36.2257C74.1093 36.2257 73.3562 36.2257 72.4524 36.2257C73.0549 38.8617 73.6574 41.3471 74.1846 43.7571C74.4106 44.8115 74.7118 45.8659 76.0675 45.7906C76.67 45.7906 77.4984 45.7906 78.1009 45.7906C78.8541 45.7906 79.2306 45.2634 79.6072 44.209L81.7913 38.4098C82.0173 37.8073 82.0926 37.732 82.2432 37.732C82.3938 37.732 82.5444 37.8073 82.6951 38.4098L84.8792 44.209C85.2557 45.2634 85.6323 45.7906 86.3854 45.7906C86.988 45.7906 87.7411 45.7906 88.4189 45.7906C89.7746 45.7906 90.0758 44.8115 90.3018 43.7571C90.829 41.3471 91.4315 38.7864 92.034 36.2257C91.2808 36.2257 90.5277 36.2257 89.6239 36.2257Z" fill="white"/>
<path d="M106.494 40.2173H95.7243C95.4984 40.2173 95.3478 40.0667 95.3478 39.9161V38.7864C95.3478 38.6357 95.4984 38.4851 95.7243 38.4851C97.5319 38.4851 104.536 38.4851 106.494 38.4851H107.021C107.021 37.732 107.021 37.0542 107.021 36.301C102.879 36.301 98.8122 36.2257 94.6699 36.3763C92.9377 36.4517 92.4858 38.0332 92.4858 39.9914C92.4858 40.2926 92.4858 41.573 92.4858 41.8742C92.4858 43.9077 92.6365 46.0165 95.5737 46.0165C99.3394 46.0165 103.105 46.0165 106.946 46.0165C106.946 45.2634 106.946 44.5102 106.946 43.8324H95.649C95.4231 43.8324 95.2724 43.6818 95.2724 43.5312V42.2508C95.2724 42.1002 95.4231 41.9496 95.649 41.9496C97.6825 41.9496 106.946 41.9496 106.946 41.9496C106.946 41.347 106.946 40.7445 106.946 40.2173H106.494Z" fill="white"/>
<path d="M124.268 36.2257H126.603V43.3052C126.603 43.4559 126.753 43.6065 126.904 43.6065H137.448V45.7906C137.448 45.7906 127.055 45.7906 126.979 45.7906C124.87 45.7906 124.193 44.9622 124.193 43.0793C124.268 41.0458 124.268 38.4852 124.268 36.2257Z" fill="white"/>
<path d="M84.0504 26.2091H85.1801C87.2136 26.1338 87.4395 25.0794 87.4395 23.2719C87.4395 21.615 86.9876 20.41 85.1048 20.3346H75.2387H72.9792V30.0501H75.2387V26.2844H80.7366L84.8035 30.0501H87.9667C87.9667 29.9748 84.0504 26.2091 84.0504 26.2091ZM75.314 24.1756V22.3681C75.9165 22.3681 82.77 22.3681 84.3516 22.3681C84.5023 22.3681 84.6529 22.5187 84.6529 22.6694V23.7991C84.6529 23.9497 84.5023 24.1003 84.3516 24.1003L75.314 24.1756Z" fill="white"/>
</svg>
