<svg width="46" height="13" viewBox="0 0 46 13" fill="none" xmlns="http://www.w3.org/2000/svg">
<g clip-path="url(#clip0_341_627)">
<path d="M16.4204 12.9839H12.3268V5.36281H12.0556C11.2944 7.90375 10.5335 10.4417 9.77137 12.9856H6.66659C5.90653 10.4481 5.14442 7.90417 4.38068 5.35518H4.11888C4.10459 5.98946 4.11439 6.62036 4.11235 7.25125C4.11072 7.8851 4.11235 8.51896 4.11235 9.15282C4.11235 9.78667 4.11235 10.4205 4.11235 11.0544C4.11235 11.6878 4.11235 12.3213 4.11235 12.9492C3.9596 13.0072 0.249543 13.0208 0 12.9661V0.0254462C0.0882181 0.0195143 0.173169 0.00934552 0.258119 0.00892182C1.52421 0.00807442 2.7903 0.00807442 4.05599 0.00807442C4.23242 0.00807442 4.40927 0.0025663 4.5853 0.00892182C5.3911 0.0385809 5.91755 0.488975 6.22836 1.22367C6.36967 1.55713 6.46361 1.91303 6.56203 2.26428C7.04723 3.99426 7.52631 5.72592 8.00824 7.45674C8.02662 7.52326 8.05153 7.58809 8.07563 7.66012H8.3656C8.38929 7.58427 8.41584 7.50674 8.43789 7.42793C8.98109 5.50306 9.52224 3.57733 10.0675 1.65331C10.1876 1.22918 10.3754 0.841918 10.6903 0.530498C11.0036 0.220772 11.3805 0.0563763 11.8069 0.0216329C12.0638 0.000447796 12.3228 0.00934552 12.5809 0.00892182C13.7788 0.00807442 14.9766 0.00849812 16.1745 0.00849812H16.4094C16.4572 0.1873 16.4653 12.7441 16.4204 12.9843V12.9839Z" fill="white"/>
<path d="M31.1149 12.9845H26.9429V5.36126H26.6109C26.5815 5.42312 26.5463 5.49049 26.5161 5.5604C25.6494 7.55688 24.7811 9.55294 23.9173 11.5507C23.5886 12.3108 23.0409 12.7892 22.2539 12.9688C22.175 12.9866 22.0925 12.9947 22.0117 12.9947C20.8003 12.9964 19.5889 12.9959 18.3776 12.9951C18.3114 12.9951 18.2453 12.9879 18.1648 12.9828V0.0518634C18.3053 -0.00109927 21.9831 -0.0222843 22.3413 0.0306783C22.347 0.119656 22.3584 0.214141 22.3584 0.30905C22.3592 2.66102 22.3592 5.01298 22.3592 7.36495V7.64671H22.6643C22.6962 7.5823 22.7354 7.50943 22.7689 7.43443C23.6474 5.45109 24.5279 3.46901 25.4011 1.48313C25.6523 0.911553 26.0089 0.453108 26.5696 0.184906C26.8134 0.067964 27.0646 0.00398515 27.3378 0.00567995C28.5153 0.0120355 29.6924 0.00822216 30.8698 0.00822216C30.9503 0.00822216 31.0303 0.00822216 31.1043 0.00822216C31.1549 0.188295 31.1631 12.7472 31.1153 12.9849L31.1149 12.9845Z" fill="white"/>
<path d="M45.907 5.36881C45.822 5.37305 45.7485 5.37941 45.675 5.37941C43.2053 5.37898 40.7352 5.38449 38.2655 5.37093C37.7447 5.36797 37.2187 5.37898 36.7045 5.23916C35.9191 5.02604 35.2256 4.63581 34.6183 4.08542C33.7921 3.33717 33.195 2.42579 32.8527 1.34281C32.7216 0.927579 32.6293 0.503031 32.6052 0.0331462C32.6849 0.0297566 32.7621 0.0238248 32.8392 0.0238248C34.6763 0.0217063 36.5134 0.0204352 38.3504 0.0187404C39.378 0.017893 40.4052 0.0187404 41.4327 0.0166219C42.2292 0.0145034 42.9888 0.178052 43.6913 0.57167C44.9455 1.27417 45.6835 2.36732 45.9388 3.81383C46.0238 4.29558 46.0242 4.7786 45.9368 5.26077C45.9319 5.28789 45.9221 5.31416 45.907 5.36839V5.36881Z" fill="white" fill-opacity="0.5"/>
<path d="M45.6293 6.20311C45.5129 6.56283 45.3443 6.87468 45.136 7.16237C44.4408 8.12121 43.5039 8.69363 42.3918 8.98005C41.9801 9.08598 41.5615 9.12199 41.138 9.12114C39.7771 9.11818 38.4163 9.1203 37.0554 9.1203C36.9754 9.1203 36.8949 9.1203 36.7936 9.1203V12.9484C36.6303 13.0069 33.0395 13.0192 32.7957 12.9667V6.22515C32.8034 6.2154 32.8075 6.20947 32.8124 6.20481C32.8173 6.20015 32.8226 6.19506 32.8287 6.19379C32.8553 6.18828 32.8818 6.17981 32.9084 6.17981C37.1204 6.17981 41.3324 6.17981 45.5444 6.18066C45.5636 6.18066 45.5828 6.1904 45.6302 6.20311H45.6293Z" fill="white"/>
</g>
<defs>
<clipPath id="clip0_341_627">
<rect width="46" height="13" fill="white"/>
</clipPath>
</defs>
</svg>
