<svg width="142" height="36" viewBox="0 0 142 36" fill="none" xmlns="http://www.w3.org/2000/svg">
<path d="M31.28 36H5.44C2.42435 36 0 33.6232 0 30.6667V5.33334C0 2.37682 2.42435 0 5.44 0H31.28C34.2956 0 36.72 2.37682 36.72 5.33334V30.6667C36.72 33.6232 34.2365 36 31.28 36Z" fill="#231815"/>
<path d="M18.0938 11.6523C18.0938 11.6523 21.7007 9.50735 23.8886 8.28996C26.0764 7.07256 27.3181 6.66677 28.5599 6.55083C29.8016 6.49285 31.2207 7.13054 31.2207 7.13054L27.259 4.69575C27.259 4.69575 26.7268 4.34793 25.2486 4.52184C23.7703 4.69575 23.0016 5.10155 22.0555 5.56532C21.1094 6.08706 14.7825 9.73923 14.7825 9.73923L18.0938 11.6523Z" fill="white"/>
<path d="M27.5549 10.029C27.5549 10.029 29.3879 12.5218 27.9688 16.9276C26.5497 21.3334 23.2384 23.8261 23.0018 24C22.8244 24.1739 20.7549 25.3334 20.7549 25.3334L20.814 28.8116C20.814 28.8116 27.4366 26.5507 30.2158 20.2899C32.6992 14.7826 31.1027 11.8261 29.861 10.5508C29.1514 9.79713 27.5549 10.029 27.5549 10.029Z" fill="white"/>
<path d="M18.0938 28.7536L14.7825 26.8406V9.79712L18.0938 11.6522V28.7536Z" fill="white"/>
<path d="M7.98245 23.7682L4.67114 21.7972V4.81165L7.92331 6.60875L7.98245 23.7682Z" fill="white"/>
<path d="M4.67084 21.7972C4.67084 21.7972 3.84301 28.9856 9.81519 31.5943C13.2448 33.1016 15.7874 32.232 16.97 31.0726C17.916 30.1451 18.0343 28.7538 18.0343 28.7538L14.723 26.7828C14.723 26.7828 14.723 27.4784 14.1908 28.0001C13.5995 28.6378 12.6534 29.2755 10.5248 28.232C7.80475 26.8407 7.92301 23.7683 7.92301 23.7683L4.67084 21.7972Z" fill="white"/>
<path d="M7.9238 6.60875L10.5847 5.27541L7.56902 3.65222L4.67163 4.81164L7.9238 6.60875Z" fill="white"/>
<path d="M138.011 27.7682H139.311V28.058H138.779V29.3914H138.484V28.058H137.951L138.011 27.7682Z" fill="#231815"/>
<path d="M139.548 27.7682H139.903L140.435 28.8117L140.967 27.7682H141.322V29.3914H141.026V28.232L140.494 29.2175H140.317L139.785 28.232V29.3914H139.548V27.7682Z" fill="#231815"/>
<path d="M136.237 27.8842C136.237 28.4639 136.237 28.9276 136.237 29.5073C133.812 29.5073 131.388 29.5073 129.023 29.5073C127.249 29.5073 127.249 29.5074 127.249 31.1885C127.249 33.6813 127.249 33.6813 129.732 33.6813C131.033 33.6813 132.334 33.6233 133.576 33.6813C134.522 33.7392 134.818 33.3914 134.699 32.5218C134.64 32.0001 134.699 31.4204 134.699 30.7827C135.291 30.7827 135.823 30.7827 136.532 30.7827C136.532 31.7682 136.591 32.6958 136.532 33.6813C136.473 34.6668 135.823 35.2465 134.877 35.3044C132.275 35.3624 129.732 35.3624 127.131 35.3044C125.948 35.3044 125.357 34.5508 125.357 33.3914C125.357 32.232 125.357 31.0146 125.357 29.8552C125.357 28.5798 125.948 27.9421 127.19 27.8842C130.205 27.8262 133.162 27.8842 136.237 27.8842Z" fill="#231815"/>
<path d="M44.5846 15.5942H46.4177V21.1594C46.4177 21.2754 46.5359 21.3913 46.6542 21.3913H53.809C53.9272 21.3913 54.0455 21.2754 54.0455 21.1594V15.5942H55.9377C55.9377 17.6232 55.9968 19.5942 55.9377 21.5653C55.9377 22.4928 55.2872 23.0725 54.4003 23.0725C51.562 23.1305 49.0194 23.1305 46.122 23.0725C45.1759 23.0725 44.5846 22.4348 44.5846 21.4493C44.5255 19.5363 44.5846 17.5653 44.5846 15.5942Z" fill="#231815"/>
<path d="M85.8577 27.8842H87.6907V33.3334C87.6907 33.4494 87.809 33.5653 87.9273 33.5653H96.2055V35.2465C96.2055 35.2465 88.0455 35.2465 87.9864 35.2465C86.3307 35.2465 85.7986 34.6088 85.7986 33.1595C85.8577 31.5943 85.8577 29.6233 85.8577 27.8842Z" fill="#231815"/>
<path d="M109.687 27.9423C110.278 27.9423 110.751 27.9423 111.402 27.9423C111.402 30.377 111.402 32.8118 111.402 35.3046C110.87 35.3046 110.337 35.3046 109.687 35.3046C109.687 32.8118 109.687 30.435 109.687 27.9423Z" fill="#231815"/>
<path d="M81.8957 19.1884C81.8957 19.1884 82.1914 18.7246 82.1914 18.4927C82.5462 17.1014 82.014 15.6522 80.5948 15.5942C77.4018 15.4783 74.2088 15.5362 70.8975 15.5362C70.8975 18.029 70.8975 20.4638 70.8975 23.0145C73.9131 23.0145 76.8696 23.0145 79.8262 23.0145C82.1322 23.0145 82.487 21.3333 82.1322 19.7681C82.1322 19.5942 81.8957 19.1884 81.8957 19.1884ZM79.9444 21.3333L72.9079 21.3913V20C72.9079 20 78.6435 20 79.9444 20C80.0627 20 80.1809 20.1159 80.1809 20.2319V21.1014C80.1809 21.2174 80.0627 21.3333 79.9444 21.3333ZM79.9444 18.6087L72.9079 18.6667V17.2753C72.9079 17.2753 78.6435 17.2753 79.9444 17.2753C80.0627 17.2753 80.1809 17.3913 80.1809 17.5072V18.3768C80.1809 18.4927 80.0627 18.6087 79.9444 18.6087Z" fill="#231815"/>
<path d="M92.1845 16.9855C91.5932 15.8261 90.7062 15.5942 89.5236 15.5942C88.2819 15.5942 87.4541 15.8261 86.8628 16.9855C86.8628 16.9855 84.6158 20.9276 83.3149 23.0725H85.621L88.8141 17.3913C88.8732 17.3334 88.9323 17.2754 89.0506 17.2754H90.1149C90.1741 17.2754 90.2923 17.3334 90.3515 17.3913L93.5445 23.0725C93.5445 23.0725 95.2593 23.0725 95.8506 23.0725C94.4315 20.9276 92.1254 16.9855 92.1845 16.9855Z" fill="#231815"/>
<path d="M107.913 15.5942H105.962C105.962 17.4493 105.962 19.3044 105.962 21.3913C105.962 21.3913 105.666 21.4493 105.252 21.1015C104.247 20.1739 102 17.5073 101.704 17.2174C101.704 17.2174 101.704 17.1594 101.645 17.1594C101.468 16.9276 101.291 16.7536 101.231 16.6957C100.522 16 100.108 15.6522 98.8071 15.5363H97.0923C97.0923 17.7971 97.0923 20.7537 97.0923 23.0145H99.0436C99.0436 21.1594 99.0436 19.3044 99.0436 17.2174C99.0436 17.2174 99.3392 17.1594 99.7532 17.5073C100.758 18.4348 103.005 21.1015 103.301 21.3913C103.301 21.3913 103.301 21.4493 103.36 21.4493C103.537 21.6812 103.715 21.8551 103.774 21.9131C104.484 22.6087 104.897 22.9565 106.198 23.0725H107.913C107.913 20.8116 107.913 17.8551 107.913 15.5942Z" fill="#231815"/>
<path d="M55.8785 29.3336C55.8785 28.464 55.2281 27.9423 54.2229 27.9423C53.1585 27.9423 52.035 27.9423 50.9707 27.9423C48.7829 27.9423 46.5951 27.9423 44.4072 27.9423C44.4072 30.435 44.4072 32.8118 44.4072 35.3046C46.5359 35.3046 48.5464 35.3046 50.5568 35.3046C51.7985 35.3046 53.0403 35.3046 54.2229 35.3046C55.169 35.3046 55.8194 34.7249 55.8785 33.9133C55.8785 33.5654 55.8785 29.6814 55.8785 29.3336ZM54.0455 30.3191V32.9278V33.4495C54.0455 33.5654 53.9272 33.6814 53.809 33.6814H46.4768C46.3585 33.6814 46.2403 33.5654 46.2403 33.4495V29.8553C46.2403 29.7394 46.3585 29.6234 46.4768 29.6234H53.9272C54.0455 29.6234 54.0455 29.7394 54.0455 29.8553V30.3191Z" fill="#231815"/>
<path d="M123.819 27.8841H121.868C121.868 29.7392 121.868 31.5943 121.868 33.6812C121.868 33.6812 121.572 33.7392 121.159 33.3914C120.153 32.4639 117.906 29.7972 117.611 29.5073C117.611 29.5073 117.611 29.5073 117.552 29.4494C117.374 29.2175 117.197 29.0436 117.138 28.9856C116.428 28.2899 116.014 27.9421 114.713 27.8262H112.999C112.999 30.087 112.999 33.0436 112.999 35.3044H114.95C114.95 33.4494 114.95 31.5943 114.95 29.5073C114.95 29.5073 115.245 29.4494 115.659 29.7972C116.665 30.7247 118.912 33.3914 119.207 33.6812C119.207 33.6812 119.207 33.6813 119.266 33.7392C119.444 33.9711 119.621 34.145 119.68 34.203C120.39 34.8986 120.804 35.2465 122.105 35.3624H123.819C123.819 33.1015 123.819 30.145 123.819 27.8841Z" fill="#231815"/>
<path d="M70.3655 27.8842C70.0699 29.4494 69.5968 31.4784 69.2421 33.0436C69.1829 33.3914 69.0647 33.6233 68.769 33.6233C68.4142 33.6233 68.4142 33.3914 68.2368 33.0436C68.2368 33.0436 67.0542 29.9711 66.4629 28.6378C66.2264 28.116 65.8716 27.8842 65.3394 27.8842C65.1029 27.8842 64.8664 27.8842 64.689 27.8842H64.6299H64.5707C64.3934 27.8842 64.1568 27.8842 63.9203 27.8842C63.3881 27.8842 63.0334 28.116 62.7968 28.6378C62.2055 29.9711 61.0229 33.0436 61.0229 33.0436C60.9047 33.3914 60.8455 33.6233 60.4907 33.6233C60.1951 33.6233 60.0768 33.3914 60.0177 33.0436C59.6629 31.4204 59.249 29.4494 58.8942 27.8842C58.1847 27.8842 57.5934 27.8842 56.8838 27.8842C57.3568 29.9131 57.8299 31.8262 58.2438 33.6813C58.4212 34.4929 58.6577 35.3045 59.7221 35.2465C60.1951 35.2465 60.8455 35.2465 61.3186 35.2465C61.9099 35.2465 62.2055 34.8407 62.5012 34.0291L64.216 29.5653C64.3934 29.1015 64.4525 29.0436 64.5707 29.0436C64.689 29.0436 64.8073 29.1015 64.9255 29.5653L66.6403 34.0291C66.936 34.8407 67.2316 35.2465 67.8229 35.2465C68.296 35.2465 68.8873 35.2465 69.4194 35.2465C70.4838 35.2465 70.7203 34.4929 70.8977 33.6813C71.3116 31.8262 71.7847 29.8552 72.2577 27.8842C71.6664 27.8842 71.0751 27.8842 70.3655 27.8842Z" fill="#231815"/>
<path d="M83.6106 30.9566H75.1549C74.9775 30.9566 74.8593 30.8406 74.8593 30.7247V29.8551C74.8593 29.7392 74.9775 29.6233 75.1549 29.6233C76.574 29.6233 82.0732 29.6233 83.6106 29.6233H84.0245C84.0245 29.0435 84.0245 28.5218 84.0245 27.9421C80.7723 27.9421 77.5793 27.8841 74.3271 28.0001C72.9671 28.058 72.6123 29.2754 72.6123 30.7827C72.6123 31.0146 72.6123 32.0001 72.6123 32.232C72.6123 33.7972 72.7306 35.4204 75.0366 35.4204C77.9932 35.4204 80.9497 35.4204 83.9653 35.4204C83.9653 34.8407 83.9653 34.2609 83.9653 33.7392H75.0958C74.9184 33.7392 74.8001 33.6233 74.8001 33.5073V32.5218C74.8001 32.4059 74.9184 32.2899 75.0958 32.2899C76.6923 32.2899 83.9653 32.2899 83.9653 32.2899C83.9653 31.8262 83.9653 31.3624 83.9653 30.9566H83.6106Z" fill="#231815"/>
<path d="M97.5655 27.8842H99.3985V33.3334C99.3985 33.4494 99.5168 33.5653 99.635 33.5653H107.913V35.2465C107.913 35.2465 99.7533 35.2465 99.6942 35.2465C98.0385 35.2465 97.5063 34.6088 97.5063 33.1595C97.5655 31.5943 97.5655 29.6233 97.5655 27.8842Z" fill="#231815"/>
<path d="M65.99 20.174H66.877C68.4735 20.116 68.6509 19.3044 68.6509 17.9131C68.6509 16.6377 68.2961 15.7102 66.8179 15.6522H59.0718H57.2979V23.1305H59.0718V20.2319H63.3883L66.5813 23.1305H69.0648C69.0648 23.0725 65.99 20.174 65.99 20.174ZM59.1309 18.6087V17.2174C59.6039 17.2174 64.9848 17.2174 66.2266 17.2174C66.3448 17.2174 66.4631 17.3334 66.4631 17.4493V18.3189C66.4631 18.4348 66.3448 18.5508 66.2266 18.5508L59.1309 18.6087Z" fill="#231815"/>
</svg>
