<svg width="23" height="23" viewBox="0 0 23 23" fill="none" xmlns="http://www.w3.org/2000/svg">
<path d="M11.0568 20.142C6.04889 20.142 1.97162 16.0647 1.97162 11.0568C1.97162 6.04883 6.04889 1.97156 11.0568 1.97156C16.0648 1.97156 20.1421 6.04883 20.1421 11.0568C20.1421 16.0647 16.0648 20.142 11.0568 20.142ZM11.0568 3.3011C6.77571 3.3011 3.30116 6.78451 3.30116 11.0568C3.30116 15.3291 6.77571 18.8125 11.0568 18.8125C15.338 18.8125 18.8125 15.3291 18.8125 11.0568C18.8125 6.78451 15.338 3.3011 11.0568 3.3011Z" fill="white"/>
<path d="M20.3636 21.0284C20.1952 21.0284 20.0268 20.9664 19.8939 20.8334L18.1211 19.0607C17.8641 18.8036 17.8641 18.3782 18.1211 18.1211C18.3782 17.8641 18.8036 17.8641 19.0607 18.1211L20.8334 19.8939C21.0904 20.1509 21.0904 20.5764 20.8334 20.8334C20.7004 20.9664 20.532 21.0284 20.3636 21.0284Z" fill="white"/>
</svg>
