<svg width="45" height="14" viewBox="0 0 45 14" fill="none" xmlns="http://www.w3.org/2000/svg">
<g clip-path="url(#clip0_341_635)">
<path d="M44.9985 13.7256V13.8068H41.6259C41.4793 13.1233 41.3357 12.4538 41.1914 11.7802H36.5073C36.2532 12.4546 35.9988 13.13 35.7463 13.7995H31.9282C31.9482 13.7478 31.9628 13.7061 31.9806 13.6655C33.4046 10.3944 34.8286 7.12331 36.2532 3.85248C36.6255 2.99754 36.9973 2.14207 37.3741 1.28876C37.5224 0.953069 37.747 0.674769 38.0822 0.490409C38.4131 0.308485 38.7767 0.249197 39.1505 0.247032C40.0884 0.242159 41.0267 0.244595 41.9647 0.244866C41.9962 0.244866 42.0278 0.250822 42.0612 0.25407C42.3753 1.70107 42.6877 3.14211 43.0004 4.58315C43.3246 6.07725 43.6491 7.57135 43.973 9.06573C44.2682 10.4277 44.5626 11.79 44.8589 13.1517C44.9008 13.3439 44.9515 13.5342 44.9982 13.7254L44.9985 13.7256ZM37.5638 8.99886H40.5888C40.2263 7.30876 39.8661 5.62759 39.5006 3.92341C38.8519 5.62298 38.2116 7.30145 37.5638 8.99886Z" fill="white"/>
<path d="M30.0299 0C30.1619 0.0170553 30.2933 0.03763 30.4258 0.0506246C31.1891 0.12426 31.9295 0.290753 32.6474 0.550644C32.6649 0.556871 32.6809 0.566346 32.7164 0.583401C32.5529 1.54933 32.3888 2.52094 32.2239 3.49607C31.963 3.39374 31.7148 3.28897 31.4612 3.19855C30.5485 2.87288 29.6049 2.77704 28.6408 2.87477C28.2321 2.91619 27.8418 3.02611 27.5069 3.27219C27.3116 3.41594 27.1689 3.59516 27.1047 3.82689C27.0234 4.12171 27.1163 4.37943 27.3304 4.58247C27.519 4.76115 27.7267 4.93143 27.9538 5.06002C28.417 5.32262 28.8957 5.56004 29.3733 5.798C30.0552 6.13776 30.6988 6.52705 31.2318 7.06741C31.7359 7.57853 32.0688 8.1752 32.16 8.87825C32.2607 9.65522 32.1392 10.4065 31.8057 11.1214C31.3546 12.0887 30.5908 12.7625 29.6232 13.2382C28.9377 13.5752 28.2085 13.7845 27.4484 13.8877C27.0639 13.9399 26.6753 13.9635 26.2886 14C26.0249 14 25.7612 14.0003 25.4975 14.0005C24.4455 13.9564 23.4096 13.8148 22.4027 13.5097C22.1944 13.4466 21.9909 13.3684 21.781 13.2956C21.953 12.2712 22.1218 11.2641 22.2924 10.2476C22.5372 10.3534 22.7663 10.4541 22.9968 10.5518C23.6334 10.8212 24.2882 11.0345 24.9822 11.1122C25.6444 11.1864 26.308 11.2354 26.9694 11.1014C27.2742 11.0397 27.5646 10.9401 27.8232 10.7703C28.1975 10.525 28.4134 10.1977 28.3731 9.74483C28.354 9.52988 28.2566 9.34876 28.1137 9.18742C27.9009 8.94729 27.638 8.76455 27.3549 8.61349C26.9131 8.37796 26.4611 8.16031 26.0162 7.92992C25.3365 7.57772 24.6966 7.17326 24.1726 6.61774C23.4907 5.89492 23.2081 5.0519 23.3221 4.07948C23.4637 2.87315 24.0783 1.93862 25.0754 1.22338C25.8513 0.666783 26.733 0.339483 27.6774 0.166493C28.0261 0.102603 28.3819 0.0728236 28.7342 0.0262598C28.7542 0.0235526 28.7725 0.00947519 28.7916 0.000812159C29.2045 0.000812159 29.617 0 30.0299 0Z" fill="white"/>
<path d="M0 0.459904C0.0219512 0.392224 0.043621 0.324544 0.0697936 0.244141C0.115103 0.244141 0.166041 0.244141 0.216698 0.244141C2.08818 0.244141 3.95966 0.244141 5.83086 0.244141C6.10919 0.244141 6.38358 0.273649 6.64812 0.357572C7.16341 0.520816 7.45947 0.877895 7.56923 1.37683C7.70882 2.01086 7.83349 2.64786 7.96379 3.28378C8.14672 4.1758 8.32852 5.0681 8.51145 5.96012C8.60826 6.43252 8.70647 6.90493 8.803 7.37733C8.81116 7.41686 8.80976 7.45801 8.81285 7.49835C8.79456 7.46234 8.77345 7.42742 8.75826 7.39006C8.49006 6.73004 8.14925 6.10603 7.74287 5.51559C6.86989 4.247 5.75629 3.21177 4.44034 2.3747C4.24615 2.25126 4.04099 2.14378 3.8409 2.029C3.61829 1.90663 3.39991 1.77587 3.17223 1.66298C2.19962 1.18056 1.17861 0.820503 0.122702 0.550595C0.0835835 0.540579 0.0410882 0.544098 0 0.54112C0 0.514048 0 0.486976 0 0.459904Z" fill="white" fill-opacity="0.5"/>
<path d="M3.84086 2.02908C4.04095 2.14387 4.24611 2.25134 4.44029 2.37479C5.75652 3.21186 6.87013 4.24709 7.74283 5.51568C8.14921 6.10639 8.49001 6.73013 8.75821 7.39015C8.77341 7.4275 8.79452 7.46243 8.81281 7.49843C8.92425 8.01388 9.0357 8.5296 9.14714 9.04505C9.17669 9.1815 9.2054 9.31821 9.2417 9.48904C10.4378 6.39092 11.6226 3.32285 12.8088 0.250183H16.6612C16.5917 0.416946 16.525 0.579378 16.4566 0.740998C14.6386 5.0384 12.8209 9.33608 11.0017 13.6332C10.9221 13.8211 10.9691 13.7891 10.7642 13.7894C9.5918 13.7908 8.41909 13.79 7.24667 13.79H7.08204C7.01028 13.5339 6.93908 13.2832 6.86984 13.0322C5.93551 9.64307 5.00146 6.25421 4.06769 2.86506C3.99086 2.58649 3.91628 2.30765 3.84058 2.02881L3.84086 2.02908Z" fill="white"/>
<path d="M19.503 13.8004H15.8577C16.6175 9.28127 17.376 4.76999 18.1355 0.251953H21.7808C21.0216 4.7681 20.2625 9.28208 19.503 13.8004Z" fill="white"/>
</g>
<defs>
<clipPath id="clip0_341_635">
<rect width="45" height="14" fill="white"/>
</clipPath>
</defs>
</svg>
